<?xml version="1.0" encoding="UTF-8" standalone="no"?>
<svg
   width="825.58344"
   height="147.5172"
   version="1.1"
   id="svg924"
   sodipodi:docname="2metic-logo.svg"
   inkscape:version="1.1 (c4e8f9e, 2021-05-24)"
   xmlns:inkscape="http://www.inkscape.org/namespaces/inkscape"
   xmlns:sodipodi="http://sodipodi.sourceforge.net/DTD/sodipodi-0.dtd"
   xmlns="http://www.w3.org/2000/svg"
   xmlns:svg="http://www.w3.org/2000/svg">
  <sodipodi:namedview
     id="namedview926"
     pagecolor="#505050"
     bordercolor="#eeeeee"
     borderopacity="1"
     inkscape:pageshadow="0"
     inkscape:pageopacity="0"
     inkscape:pagecheckerboard="0"
     showgrid="false"
     fit-margin-top="0"
     fit-margin-left="0"
     fit-margin-right="0"
     fit-margin-bottom="0"
     inkscape:zoom="1.0576172"
     inkscape:cx="412.24746"
     inkscape:cy="74.223453"
     inkscape:window-width="2140"
     inkscape:window-height="1429"
     inkscape:window-x="2070"
     inkscape:window-y="74"
     inkscape:window-maximized="0"
     inkscape:current-layer="svg924" />
  <defs
     id="defs916" />
  <g
     style="line-height:1;font-variant-ligatures:none;text-align:center"
     font-family="'Comfortaa Bold Alt1'"
     font-size="72px"
     font-weight="700"
     text-anchor="middle"
     id="g922"
     transform="translate(-99.208272,-310.2414)">
    <path
       style="line-height:1;font-variant-ligatures:none;text-align:center"
       fill="#2bbbbb"
       d="m 185.27563,440.65788 c -1.8792,-1.8792 -4.32216,-2.8188 -6.95304,-2.8188 h -52.6176 l 43.03368,-48.8592 c 4.698,-5.26176 8.64432,-10.89936 11.83896,-16.9128 3.19464,-6.01344 4.88592,-11.65104 4.88592,-17.28864 0,-9.02016 -1.8792,-16.72488 -5.26176,-23.49 -3.38256,-6.76512 -8.26848,-11.83896 -14.65776,-15.59736 -6.38928,-3.57048 -13.71816,-5.44968 -21.98664,-5.44968 -8.4564,0 -15.9732,2.06712 -22.73832,5.82552 -6.76512,3.94632 -12.02688,9.20808 -15.78528,15.9732 -3.94632,6.76512 -5.825518,14.46984 -5.825518,22.73832 0,2.63088 0.939598,4.698 2.818798,6.5772 1.8792,1.8792 4.13424,2.8188 6.76512,2.8188 2.63088,0 4.88592,-0.9396 6.76512,-2.8188 1.8792,-1.8792 2.8188,-3.94632 2.8188,-6.5772 0,-4.698 0.9396,-9.20808 3.19464,-13.34232 2.25504,-4.13424 5.26176,-7.32888 9.20808,-9.77184 3.7584,-2.44296 8.08056,-3.7584 12.77856,-3.7584 7.14096,0 12.96648,2.44296 17.10072,7.32888 4.13424,4.88592 6.38928,11.46312 6.38928,19.54368 0,6.76512 -3.94632,14.46984 -11.83896,23.49 l -53.36928,62.38944 c -1.879197,1.8792 -2.630877,4.13424 -2.630877,6.76512 0,2.63088 0.751679,4.88592 2.630877,6.76512 1.8792,1.8792 4.13424,2.8188 6.95304,2.8188 h 69.5304 c 2.63088,0 5.07384,-0.9396 6.95304,-2.8188 1.8792,-1.8792 2.8188,-4.13424 2.8188,-6.76512 0,-2.63088 -0.9396,-4.88592 -2.8188,-6.76512 z"
       id="path918" />
    <path
       style="line-height:1;font-variant-ligatures:none;text-align:center"
       fill="#2b2b2b"
       d="m 367.01547,363.98652 c -6.76512,-7.14096 -15.59736,-10.71144 -26.3088,-10.71144 h -99.03384 c -2.44296,0 -4.69798,0.9396 -6.38928,2.63088 -1.8792,1.8792 -2.63086,3.94632 -2.63086,6.38928 v 85.31568 c 0,2.8188 0.75166,5.07384 2.63086,6.95304 1.87922,1.8792 4.13424,2.63088 6.95304,2.63088 2.8188,0 5.07384,-0.75168 6.95304,-2.63088 1.69128,-1.8792 2.63088,-4.13424 2.63088,-6.95304 v -52.99344 c 0,-6.95304 2.06712,-12.59064 6.20136,-17.28864 4.13424,-4.51008 9.58394,-6.76512 16.34904,-6.76512 6.38928,0 11.46312,2.06712 15.22152,6.01344 3.7584,3.94632 5.82554,9.77184 5.82554,17.28864 v 53.74512 c 0,2.8188 0.75166,5.07384 2.63086,6.95304 1.8792,1.8792 4.13424,2.63088 6.95304,2.63088 2.8188,0 5.07384,-0.75168 6.95306,-2.63088 1.69126,-1.8792 2.63088,-4.13424 2.63088,-6.95304 v -52.99344 c 0,-6.95304 2.0671,-12.59064 6.20134,-17.28864 4.13424,-4.51008 9.58394,-6.76512 16.16112,-6.76512 6.3893,0 11.46312,2.06712 15.22152,6.01344 3.7584,3.94632 5.82554,9.77184 5.82554,17.28864 v 53.74512 c 0,2.8188 0.75168,5.07384 2.63086,6.95304 1.8792,1.8792 4.13424,2.63088 6.95304,2.63088 2.81882,0 5.07384,-0.75168 6.95304,-2.63088 1.69128,-1.8792 2.6309,-4.13424 2.6309,-6.95304 V 393.8658 c 0,-12.77856 -3.38256,-22.73832 -10.1477,-29.87928 z m 149.90796,46.0404 c 1.50336,-1.50336 2.44296,-3.57048 2.44296,-6.01344 0,-9.77184 -1.8792,-18.60408 -5.63758,-26.3088 -3.75842,-7.5168 -9.2081,-13.53024 -16.16112,-17.8524 -7.14096,-4.13424 -15.40944,-6.38928 -24.99338,-6.38928 -9.77182,0 -18.60408,2.25504 -26.3088,6.76512 -7.7047,4.51008 -13.71816,10.71144 -18.04032,18.60408 -4.32216,7.89264 -6.38928,16.9128 -6.38928,26.87256 0,10.14768 2.25504,18.97992 6.76512,26.87256 4.51008,7.89264 10.89936,14.094 19.16784,18.60408 8.08056,4.51008 17.28864,6.5772 27.62424,6.5772 5.6376,0 11.65104,-0.9396 18.04034,-3.19464 6.38928,-2.06712 11.65104,-4.88592 15.97318,-8.26848 1.8792,-1.50336 3.00672,-3.38256 3.00672,-5.6376 0,-2.25504 -1.12752,-4.51008 -3.38256,-6.38928 -1.50334,-1.12752 -3.38254,-1.8792 -5.6376,-1.8792 -2.44296,0 -4.51006,0.75168 -6.20134,2.06712 -2.6309,2.06712 -6.01346,3.7584 -10.1477,5.07384 -4.13424,1.50336 -7.89264,2.06712 -11.65104,2.06712 -9.58392,0 -17.66448,-2.63088 -24.24166,-8.08056 -6.57722,-5.26176 -10.52354,-12.40272 -11.83896,-21.23496 h 71.40958 c 2.44298,0 4.5101,-0.75168 6.20136,-2.25504 z m -66.71158,-32.886 c 5.63758,-4.88592 13.15438,-7.5168 22.36246,-7.5168 8.26848,0 14.84568,2.63088 20.10744,7.5168 5.07386,5.07384 8.26848,11.83896 9.396,20.10744 h -62.57736 c 1.50336,-8.26848 5.07384,-15.0336 10.71146,-20.10744 z m 116.19391,-19.16784 v 62.57736 c 0,6.95304 1.31544,13.1544 4.32219,18.60408 2.81877,5.6376 6.76512,9.95976 11.83893,13.1544 5.07387,3.19464 10.71147,4.698 16.9128,4.698 h 3.38259 c 3.19461,0 5.82552,-0.75168 7.89264,-2.63088 2.06709,-1.69128 3.19461,-3.94632 3.19461,-6.76512 0,-2.63088 -0.9396,-4.88592 -2.44296,-6.76512 -1.50333,-1.69128 -3.38256,-2.63088 -5.6376,-2.63088 h -6.38928 c -4.13421,0 -7.5168,-1.69128 -10.14768,-5.07384 -2.81877,-3.38256 -4.13421,-7.5168 -4.13421,-12.59064 V 374.1342 h 15.9732 c 2.63085,0 4.69797,-0.75168 6.38925,-2.25504 1.50339,-1.50336 2.44299,-3.38256 2.44299,-5.6376 0,-2.44296 -0.9396,-4.51008 -2.44299,-6.01344 -1.69128,-1.50336 -3.7584,-2.25504 -6.38925,-2.25504 h -15.9732 V 330.9126 c 0,-2.63088 -0.93963,-4.88592 -2.63091,-6.76512 -1.8792,-1.69128 -4.13421,-2.63088 -6.76512,-2.63088 -2.8188,0 -5.07381,0.9396 -6.76512,2.63088 -1.8792,1.8792 -2.63088,4.13424 -2.63088,6.76512 z m 155.14918,-1.8792 c -3.7584,-1.8792 -9.02016,-3.00672 -15.59736,-3.00672 -6.38928,0 -12.2148,1.31544 -17.66448,3.7584 -5.6376,2.63088 -10.14768,6.01344 -13.90608,10.3356 v -3.57048 c 0,-6.20136 -3.19464,-9.396 -9.396,-9.396 -3.00672,0 -5.44968,0.9396 -6.95304,2.44296 -1.69128,1.69128 -2.44296,3.94632 -2.44296,6.95304 v 84.00024 c 0,3.19464 0.75168,5.6376 2.44296,7.14096 1.50336,1.50336 3.94632,2.25504 6.95304,2.25504 3.00672,0 5.44968,-0.75168 6.95304,-2.44296 1.50336,-1.50336 2.44296,-3.94632 2.44296,-6.95304 v -54.87264 c 0,-6.95304 2.63088,-12.59064 8.26848,-16.72488 5.44968,-4.13424 12.77856,-6.20136 21.79872,-6.20136 3.00672,0 7.14096,0.56376 12.2148,1.31544 1.12752,0.37584 2.06712,0.37584 2.8188,0.37584 3.7584,0 6.38928,-1.8792 7.5168,-6.01344 0,-0.37584 0.18792,-0.9396 0.18792,-1.8792 0,-3.00672 -1.8792,-5.44968 -5.6376,-7.5168 z m 48.21093,0.75168 c -1.87917,1.8792 -2.63085,4.13424 -2.63085,6.95304 v 83.6244 c 0,2.8188 0.75168,5.07384 2.63085,6.95304 1.8792,1.8792 4.13427,2.63088 6.95304,2.63088 2.8188,0 5.07387,-0.75168 6.95304,-2.63088 1.69128,-1.8792 2.63088,-4.13424 2.63088,-6.95304 v -83.6244 c 0,-2.8188 -0.9396,-5.07384 -2.63088,-6.95304 -1.87917,-1.69128 -4.13424,-2.63088 -6.95304,-2.63088 -2.81877,0 -5.07384,0.9396 -6.95304,2.63088 z m 153.14666,13.53024 c -9.77184,-11.2752 -22.17456,-16.9128 -36.83232,-16.9128 -9.77184,0 -18.60408,2.25504 -26.3088,6.76512 -7.89264,4.51008 -13.90608,10.71144 -18.22824,18.60408 -4.32216,7.89264 -6.38928,16.9128 -6.38928,26.87256 0,9.77184 2.06712,18.792 6.5772,26.68464 4.51008,7.89264 10.71144,14.094 18.60408,18.60408 7.89264,4.51008 16.72488,6.76512 26.68464,6.76512 13.53024,0 24.80544,-4.13424 33.8256,-12.59064 1.50336,-1.50336 2.25504,-3.19464 2.25504,-5.07384 0,-2.44296 -1.31544,-4.698 -3.57048,-6.76512 -1.50336,-1.12752 -3.19464,-1.69128 -4.88592,-1.69128 -2.25504,0 -4.698,0.9396 -6.95304,2.63088 -5.26176,4.51008 -12.2148,6.5772 -20.6712,6.5772 -6.5772,0 -12.40272,-1.50336 -17.47656,-4.51008 -5.07384,-3.00672 -9.02016,-7.14096 -11.83896,-12.40272 -2.8188,-5.26176 -4.13424,-11.46312 -4.13424,-18.22824 0,-10.52352 3.00672,-19.16784 9.02016,-25.55712 6.01344,-6.38928 13.71816,-9.77184 23.49,-9.77184 4.698,0 8.83224,0.9396 12.59064,2.44296 3.7584,1.50336 7.14096,3.94632 10.3356,7.32888 1.8792,2.25504 4.32216,3.38256 7.32888,3.38256 1.50336,0 3.00672,-0.37584 4.32216,-1.31544 2.63088,-1.8792 4.13424,-4.13424 4.13424,-6.95304 0,-1.8792 -0.75168,-3.38256 -1.8792,-4.88592 z"
       id="path920" />
  </g>
</svg>
